# xmcd CD database file
#
# Track frame offsets:
#	150
#	27308
#	45108
#	65755
#	99898
#	120263
#	145738
#	171333
#	193995
#	212970
#	240220
#	259053
#	278568
#	300418
#
# Disc length: 4283 seconds
#
# Revision: 0
# Processed by: cddbd v1.5PL3 Copyright (c) Steve Scherf et al.
# Submitted via: CDex 1.51
#
DISCID=b810b90e
DTITLE=KARRIN ALLYSON - In Blue
DYEAR=2002
DGENRE=Jazz
TTITLE0=Moanin'
TTITLE1=Everybody's Cryin' Mercy
TTITLE2=Long As You're Living
TTITLE3=The Meaning Of The Blues
TTITLE4=My Bluebird
TTITLE5=Hum Drum Blues
TTITLE6=How Long Has This Been Going On?
TTITLE7=West Coast Blues
TTITLE8=Evil Gal Blues
TTITLE9=Blue Motel Room
TTITLE10=Bye Bye Country Boy
TTITLE11=Love Me Like A Man
TTITLE12=Angel Eyes 
TTITLE13=Some Of My Best Friends (Are The Blues)
EXTD=YEAR: 2002
EXTT0=
EXTT1=
EXTT2=
EXTT3=
EXTT4=
EXTT5=
EXTT6=
EXTT7=
EXTT8=
EXTT9=
EXTT10=
EXTT11=
EXTT12=
EXTT13=
PLAYORDER=
